<svg xmlns="http://www.w3.org/2000/svg"  viewBox="0 0 64 64" width="64px" height="64px"><linearGradient id="JDsPHJ1ILcvcEJSeHcegwa" x1="32" x2="32" y1="23.024" y2="40.834" gradientUnits="userSpaceOnUse"><stop offset="0" stop-color="#8cc5fc"/><stop offset="1" stop-color="#d5a8fb"/></linearGradient><path fill="url(#JDsPHJ1ILcvcEJSeHcegwa)" d="M46.839,23h-20.23c-0.414,0-0.796,0.213-1.004,0.56l-9.447,15.75	c-0.209,0.347-0.21,0.777-0.002,1.126C16.361,40.785,16.746,41,17.161,41h20.165c0.022,0,0.043,0,0.065,0	c0.4,0,0.79-0.201,1.005-0.56l9.447-15.75c0.209-0.347,0.21-0.777,0.002-1.126C47.639,23.215,47.254,23,46.839,23z"/><linearGradient id="JDsPHJ1ILcvcEJSeHcegwb" x1="32" x2="32" y1="120.65" y2="174.004" gradientTransform="translate(0 -114.65)" gradientUnits="userSpaceOnUse"><stop offset="0" stop-color="#1a6dff"/><stop offset="1" stop-color="#c822ff"/></linearGradient><path fill="url(#JDsPHJ1ILcvcEJSeHcegwb)" d="M32,58C17.664,58,6,46.336,6,32S17.664,6,32,6s26,11.664,26,26S46.336,58,32,58z M32,8	C18.766,8,8,18.766,8,32s10.766,24,24,24s24-10.766,24-24S45.234,8,32,8z"/></svg>