<svg width="0" height="0" class="hidden">
  <symbol xmlns="http://www.w3.org/2000/svg" viewBox="0 0 50 50" id="icons8-search">
    <path d="M 21 3 C 11.621094 3 4 10.621094 4 20 C 4 29.378906 11.621094 37 21 37 C 24.710938 37 28.140625 35.804688 30.9375 33.78125 L 44.09375 46.90625 L 46.90625 44.09375 L 33.90625 31.0625 C 36.460938 28.085938 38 24.222656 38 20 C 38 10.621094 30.378906 3 21 3 Z M 21 5 C 29.296875 5 36 11.703125 36 20 C 36 28.296875 29.296875 35 21 35 C 12.703125 35 6 28.296875 6 20 C 6 11.703125 12.703125 5 21 5 Z"></path>
  </symbol>
  <symbol xmlns="http://www.w3.org/2000/svg" viewBox="0 0 50 50" id="icons8-wordpress">
    <path d="M 25 2 C 12.311335 2 2 12.311335 2 25 C 2 37.688665 12.311335 48 25 48 C 37.688665 48 48 37.688665 48 25 C 48 12.311335 37.688665 2 25 2 z M 25 4 C 36.607335 4 46 13.392665 46 25 C 46 36.607335 36.607335 46 25 46 C 13.392665 46 4 36.607335 4 25 C 4 13.392665 13.392665 4 25 4 z M 25 6 C 14.513273 6 6 14.513273 6 25 C 6 35.486727 14.513273 44 25 44 C 35.486727 44 44 35.486727 44 25 C 44 14.513273 35.486727 6 25 6 z M 25 8 C 28.972457 8 32.611711 9.3659473 35.501953 11.638672 C 34.996253 12.258468 34.699219 13.053218 34.699219 13.900391 C 34.699219 15.500391 35.599609 16.9 36.599609 18.5 C 37.399609 19.8 38.199219 21.500391 38.199219 23.900391 C 38.199219 25.600391 37.699219 27.700781 36.699219 30.300781 L 34.699219 36.900391 L 27.599609 15.699219 C 28.799609 15.599219 29.900391 15.5 29.900391 15.5 C 30.900391 15.4 30.800781 13.900391 29.800781 13.900391 L 29.699219 13.900391 C 29.699219 13.900391 26.500391 14.199219 24.400391 14.199219 C 22.500391 14.199219 19.199219 13.900391 19.199219 13.900391 L 19.099609 13.900391 C 18.099609 13.900391 18 15.5 19 15.5 C 19 15.5 19.999609 15.599219 21.099609 15.699219 L 24.199219 24.099609 L 19.900391 37 L 12.699219 15.599609 C 13.899219 15.499609 15 15.400391 15 15.400391 C 16 15.300391 15.900391 13.800781 14.900391 13.800781 L 14.800781 13.800781 C 14.800781 13.800781 13.489398 13.908495 12.044922 13.996094 C 15.160169 10.329869 19.798156 8 25 8 z"></path>
  </symbol>
</svg>